<?xml version="1.0" ?>
<!-- Uploaded to: SVG Repo, www.svgrepo.com, Generator: SVG Repo Mixer Tools -->
<svg fill="#000000" width="800px" height="800px" viewBox="0 0 64 64" xmlns="http://www.w3.org/2000/svg">
<g data-name="12 site" id="_12_site">
<path d="M17.5,9.08a2,2,0,1,1-2-2.03A2.021,2.021,0,0,1,17.5,9.08Z"/>
<path d="M11.5,9.08a2,2,0,1,1-2-2.03A2.021,2.021,0,0,1,11.5,9.08Z"/>
<path d="M23.5,9.08a2,2,0,1,1-2-2.03A2.021,2.021,0,0,1,23.5,9.08Z"/>
<path d="M58.5,3.5H5.5a2.006,2.006,0,0,0-2,2v53a2.006,2.006,0,0,0,2,2h53a2.006,2.006,0,0,0,2-2V5.5A2.006,2.006,0,0,0,58.5,3.5Zm0,55H5.5V14.67h53Zm0-45.83H5.5V5.5h53Z"/>
<path d="M56.21,9.91a1,1,0,0,1-.01,1.41.96.96,0,0,1-.7.29.976.976,0,0,1-.71-.3l-.79-.8-.79.8a.976.976,0,0,1-.71.3.96.96,0,0,1-.7-.29,1,1,0,0,1-.01-1.41l.81-.83-.81-.82a1.008,1.008,0,0,1,.01-1.42,1,1,0,0,1,1.41.01l.79.81.79-.81a1,1,0,0,1,1.41-.01,1.008,1.008,0,0,1,.01,1.42l-.81.82Z"/>
<path d="M49.5,9.08a1,1,0,0,1-1,1h-4a1,1,0,0,1,0-2h4A1,1,0,0,1,49.5,9.08Z"/>
<path d="M20.15,42.89l3.63-2.09H41.45A2.889,2.889,0,0,0,44,39.24l5.67-10.71a3.089,3.089,0,0,0-.22-3.22l-.72-1.02a2.906,2.906,0,0,0-2.34-1.22h-.01l-23.57.06-.15-1.54a3.084,3.084,0,0,0-3.03-2.81H13.98a1,1,0,0,0,0,2h5.65a1.09,1.09,0,0,1,1.04,1.02l1.78,17.46-3.37,1.95a3.158,3.158,0,0,0-1.34,2.6v.28a3.113,3.113,0,0,0,2.83,3.13,4.653,4.653,0,0,0-.78,2.59,4.408,4.408,0,1,0,8.81,0,4.684,4.684,0,0,0-.77-2.57H36.9a4.6,4.6,0,0,0-.77,2.57,4.408,4.408,0,1,0,8.81,0,4.684,4.684,0,0,0-.77-2.57h1.81a1,1,0,0,0,0-2H20.79a1.107,1.107,0,0,1-1.05-1.15v-.28A1.211,1.211,0,0,1,20.15,42.89ZM42.24,38.3a.915.915,0,0,1-.79.5H24.41L23.38,28.66l23.96-.01Zm4.14-13.23h.01a.87.87,0,0,1,.71.38l.73,1.02c.03.05.06.11.09.17l-24.75.02-.15-1.53ZM40.53,47.24a2.581,2.581,0,1,1-2.4,2.57A2.494,2.494,0,0,1,40.53,47.24Zm-16.34,0a2.581,2.581,0,1,1-2.4,2.57A2.494,2.494,0,0,1,24.19,47.24Z"/>
</g>
</svg>